<svg width="24" height="24" viewBox="0 0 24 24" fill="none" xmlns="http://www.w3.org/2000/svg">
<g clip-path="url(#clip0_120_3705)">
<path d="M12.0003 2C12.552 2 13 2.69988 13 3.56213V18H11V3.56213C11.0003 2.69988 11.4483 2 12.0003 2Z" fill="#187CD8"/>
<path d="M20.2716 10H13V5H20.2716C20.5028 5 20.7183 5.12735 20.8436 5.33812L21.8913 7.10002C22.0362 7.34344 22.0362 7.65656 21.8913 7.89998L20.8436 9.66188C20.7183 9.87265 20.5028 10 20.2716 10Z" fill="#187CD8"/>
<path d="M3.72842 15H11V10H3.72842C3.49724 10 3.28168 10.1273 3.15643 10.3381L2.10871 12.1C1.96376 12.3434 1.96376 12.6566 2.10871 12.9L3.15643 14.6619C3.28168 14.8727 3.49724 15 3.72842 15Z" fill="#187CD8"/>
<path d="M11.4901 17H12.5095C14.9877 17 17 19.1064 17 21.7012C17 21.8662 16.8722 22 16.7146 22H7.28543C7.12777 22 7 21.8662 7 21.7012C7 19.1067 9.01196 17 11.4905 17H11.4901Z" fill="#187CD8"/>
</g>
<defs>
<clipPath id="clip0_120_3705">
<rect width="20" height="20" fill="white" transform="translate(2 2)"/>
</clipPath>
</defs>
</svg>
