<svg width="24" height="24" viewBox="0 0 24 24" fill="none" xmlns="http://www.w3.org/2000/svg">
<path d="M3 4C3 3.44772 3.44772 3 4 3H17C17.5523 3 18 3.44772 18 4V4C18 4.55228 17.5523 5 17 5H4C3.44772 5 3 4.55228 3 4V4Z" fill="#7D34DA"/>
<path fill-rule="evenodd" clip-rule="evenodd" d="M5 3C4.44772 3 4 3.44772 4 4V20C4 20.5523 4.44772 21 5 21H16C16.5523 21 17 20.5523 17 20V4C17 3.44772 16.5523 3 16 3H5ZM8 9V17H9V9H8ZM12 9V17H13V9H12Z" fill="#7D34DA"/>
<path d="M15 8H19C20.1046 8 21 8.89543 21 10V16C21 17.1046 20.1046 18 19 18H15V8Z" stroke="#7D34DA" stroke-width="2"/>
</svg>
