<svg width="24" height="24" viewBox="0 0 24 24" fill="none" xmlns="http://www.w3.org/2000/svg">
<path d="M7.00041 10.667C7.48191 10.667 7.95869 10.5721 8.40354 10.3879C8.84838 10.2036 9.25258 9.93352 9.59305 9.59305C9.93352 9.25258 10.2036 8.84838 10.3879 8.40354C10.5721 7.95869 10.667 7.48191 10.667 7.00041C10.667 6.51891 10.5721 6.04213 10.3879 5.59728C10.2036 5.15244 9.93352 4.74824 9.59305 4.40777C9.25258 4.0673 8.84838 3.79722 8.40354 3.61296C7.95869 3.4287 7.48191 3.33386 7.00041 3.33386C6.02798 3.33386 5.09538 3.72016 4.40777 4.40777C3.72016 5.09538 3.33386 6.02798 3.33386 7.00041C3.33386 7.97284 3.72016 8.90544 4.40777 9.59305C5.09538 10.2807 6.02798 10.667 7.00041 10.667Z" fill="#8482FF" stroke="#8482FF" stroke-width="1.71429" stroke-linecap="round" stroke-linejoin="round"/>
<path d="M17.0003 10.667C17.4818 10.667 17.9586 10.5721 18.4034 10.3879C18.8483 10.2036 19.2525 9.93352 19.5929 9.59305C19.9334 9.25258 20.2035 8.84838 20.3877 8.40354C20.572 7.95869 20.6668 7.48191 20.6668 7.00041C20.6668 6.51891 20.572 6.04213 20.3877 5.59728C20.2035 5.15244 19.9334 4.74824 19.5929 4.40777C19.2525 4.0673 18.8483 3.79722 18.4034 3.61296C17.9586 3.4287 17.4818 3.33386 17.0003 3.33386C16.0279 3.33386 15.0953 3.72016 14.4076 4.40777C13.72 5.09538 13.3337 6.02798 13.3337 7.00041C13.3337 7.97284 13.72 8.90544 14.4076 9.59305C15.0953 10.2807 16.0279 10.667 17.0003 10.667Z" stroke="#8482FF" stroke-width="1.71429" stroke-linecap="round" stroke-linejoin="round"/>
<path d="M7.00041 20.6668C7.97284 20.6668 8.90544 20.2805 9.59305 19.5929C10.2807 18.9053 10.667 17.9727 10.667 17.0003C10.667 16.0279 10.2807 15.0953 9.59305 14.4076C8.90544 13.72 7.97284 13.3337 7.00041 13.3337C6.02798 13.3337 5.09538 13.72 4.40777 14.4076C3.72016 15.0953 3.33386 16.0279 3.33386 17.0003C3.33386 17.9727 3.72016 18.9053 4.40777 19.5929C5.09538 20.2805 6.02798 20.6668 7.00041 20.6668Z" stroke="#8482FF" stroke-width="1.71429" stroke-linecap="round" stroke-linejoin="round"/>
<path d="M17.0003 20.6668C17.9727 20.6668 18.9053 20.2805 19.5929 19.5929C20.2805 18.9053 20.6668 17.9727 20.6668 17.0003C20.6668 16.0279 20.2805 15.0953 19.5929 14.4076C18.9053 13.72 17.9727 13.3337 17.0003 13.3337C16.0279 13.3337 15.0953 13.72 14.4076 14.4076C13.72 15.0953 13.3337 16.0279 13.3337 17.0003C13.3337 17.9727 13.72 18.9053 14.4076 19.5929C15.0953 20.2805 16.0279 20.6668 17.0003 20.6668Z" stroke="#8482FF" stroke-width="1.71429" stroke-linecap="round" stroke-linejoin="round"/>
</svg>
