<svg width="24" height="24" viewBox="0 0 24 24" fill="none" xmlns="http://www.w3.org/2000/svg">
<path d="M4 7C4 5.89543 4.89543 5 6 5H18C19.1046 5 20 5.89543 20 7V11H4V7Z" stroke="#C63737" stroke-width="2"/>
<path d="M2 12C2 10.8954 2.89543 10 4 10H20C21.1046 10 22 10.8954 22 12V19H2V12Z" fill="#C63737"/>
<path d="M4 19H7V20C7 20.5523 6.55228 21 6 21H5C4.44772 21 4 20.5523 4 20V19Z" fill="#C63737"/>
<path d="M17 19H20V20C20 20.5523 19.5523 21 19 21H18C17.4477 21 17 20.5523 17 20V19Z" fill="#C63737"/>
<path d="M6 9C6 8.44772 6.44772 8 7 8H10C10.5523 8 11 8.44772 11 9V10H6V9Z" fill="#C63737"/>
<path d="M13 9C13 8.44772 13.4477 8 14 8H17C17.5523 8 18 8.44772 18 9V10H13V9Z" fill="#C63737"/>
</svg>
