<svg width="96" height="55" viewBox="0 0 96 55" fill="none" xmlns="http://www.w3.org/2000/svg">
<g clip-path="url(#clip0_120_5716)">
<path d="M10.9501 24.5753C7.55511 24.4181 6.82511 24.2173 6.82511 23.615C6.82511 22.8554 7.388 22.6896 10.053 22.5324C13.9756 22.3316 17.2035 20.3237 17.2035 16.7967C17.2035 16.3951 17.0012 15.7927 16.8429 15.4348H18.8658V11.4626H15.1454C12.2782 11.4626 11.2667 10.9824 9.16464 10.9824C3.86991 10.9824 0.844349 13.3483 0.844349 16.7967C0.844349 19.2848 2.4187 20.8912 4.39762 21.7292C2.74412 22.2531 1.28411 23.615 1.28411 25.2213C1.28411 27.9102 3.58846 29.2285 8.79524 29.4729C11.8648 29.5951 12.9994 30.0753 12.9994 31.28C12.9994 32.4848 11.5833 33.2443 9.04151 33.2443C6.49969 33.2443 4.83739 32.6856 4.83739 31.5594C4.83739 30.8785 5.28594 30.634 5.68173 30.3546L3.42135 29.63C1.92616 29.7086 -0.00878906 30.8348 -0.00878906 32.6769C-0.00878906 35.4007 3.79075 36.9634 9.36693 36.9634C14.9431 36.9634 18.6987 34.4753 18.6987 30.6253C18.6987 27.4999 16.5966 24.9332 10.9413 24.5665L10.9501 24.5753ZM9.20862 14.1864C10.6247 14.1864 11.7504 15.1467 11.7504 16.7967C11.7504 18.4467 10.6159 19.3634 9.20862 19.3634C7.71343 19.3634 6.6668 18.4031 6.6668 16.7967C6.6668 15.1904 7.71343 14.1864 9.20862 14.1864Z" fill="white"/>
<path d="M28.7956 10.8254C23.1403 10.8254 18.7339 14.7977 18.7339 20.1318C18.7339 25.4659 23.1403 29.4381 28.7956 29.4381C34.451 29.4381 38.8574 25.5445 38.8574 20.1318C38.8574 14.7191 34.4158 10.8254 28.7956 10.8254ZM28.7956 25.0993C26.5353 25.0993 24.873 23.4143 24.873 20.1318C24.873 16.8492 26.4913 15.1556 28.7956 15.1556C31.1 15.1556 32.7183 16.8842 32.7183 20.1318C32.7183 23.3794 31.1 25.0993 28.7956 25.0993Z" fill="white"/>
<path d="M43.5363 9.66421C45.2338 9.66421 46.6499 8.3023 46.6499 6.61738C46.6499 4.93246 45.2338 3.57056 43.5363 3.57056C41.8389 3.57056 40.4668 4.93246 40.4668 6.61738C40.4668 8.3023 41.8389 9.66421 43.5363 9.66421Z" fill="white"/>
<path d="M40.4316 28.7833H46.6938V11.0261L40.4316 11.6285V28.7833Z" fill="white"/>
<path d="M61.6723 19.6079V28.792H67.9345V18.4904C67.9345 14.2039 66.1139 10.9912 61.47 10.9912C59.1304 10.9912 56.4215 12.2745 55.3661 14.5618L55.1638 11.1134L49.3062 11.6722V28.792H55.5684V19.6515C55.5684 17.6436 57.1427 15.8015 59.0865 15.8015C60.9071 15.8015 61.6723 16.8055 61.6723 19.6079Z" fill="white"/>
<path d="M69.878 50.9142C68.3828 50.9142 67.9431 50.1547 67.9431 48.2253V41.0055H72.0681V37.0333H67.9431V32.3015H61.6809V37.0333H59.2974V41.0055H61.6809V49.142C61.6809 52.992 64.1435 54.8341 67.3802 54.8341C69.6406 54.8341 71.6986 54.0309 72.6749 53.1491L72.112 50.146C71.6283 50.5039 70.9423 50.9055 69.8868 50.9055L69.878 50.9142Z" fill="white"/>
<path d="M83.1765 36.396C77.5212 36.396 73.1147 40.3682 73.1147 45.7023C73.1147 51.0365 77.5212 55.0087 83.1765 55.0087C88.8318 55.0087 93.2383 51.115 93.2383 45.7023C93.2383 40.2896 88.7967 36.396 83.1765 36.396ZM83.1765 50.6698C80.9161 50.6698 79.2538 48.9849 79.2538 45.6936C79.2538 42.4023 80.8721 40.7174 83.1765 40.7174C85.4809 40.7174 87.0992 42.446 87.0992 45.6936C87.0992 48.9412 85.4809 50.6698 83.1765 50.6698Z" fill="white"/>
<path d="M79.7376 32.2928C81.6725 34.8595 85.4105 34.4928 87.064 31.8301C91.2417 26.1206 95.6217 19.9484 95.9999 12.5627C96.0615 4.08568 87.2223 -2.05162 79.1922 0.645999C70.7312 3.49203 68.4005 12.2833 71.9714 19.8262C73.9943 24.4881 76.6856 28.3904 79.7376 32.2928ZM90.1511 12.5627C89.7817 18.019 86.4395 23.0039 83.2381 27.4825C82.6927 26.723 82.0771 25.8587 81.6725 25.2127C79.3769 21.642 77.2749 17.8619 76.5801 13.8198C75.2168 3.75394 89.6586 2.48806 90.1511 12.5627Z" fill="white"/>
</g>
<defs>
<clipPath id="clip0_120_5716">
<rect width="96" height="55" fill="white"/>
</clipPath>
</defs>
</svg>
