<svg width="24" height="24" viewBox="0 0 24 24" fill="none" xmlns="http://www.w3.org/2000/svg">
<path d="M20 2C18.1239 2 16.5607 3.56444 16.4183 5.58914L16.0022 12.558C15.9639 13.1862 16.4256 13.7175 17.006 13.7175H17.5827V20.7259C17.5827 21.4291 18.1101 22 18.7598 22H18.8164C19.4661 22 19.9936 21.4291 19.9936 20.7259V2H20Z" fill="#D77400"/>
<path d="M12.0307 2H12.0212C11.4841 2 11.048 2.45975 11.048 3.0259V6.75407C11.048 7.2118 10.6957 7.58322 10.2615 7.58322C9.82734 7.58322 9.47503 7.2118 9.47503 6.75407V3.0259C9.47503 2.45975 9.03893 2 8.5019 2C7.96487 2 7.52878 2.45975 7.52878 3.0259V6.75407C7.52878 7.2118 7.17647 7.58322 6.74228 7.58322C6.30808 7.58322 5.95578 7.2118 5.95578 6.75407V3.0259C5.95578 2.45975 5.51968 2 4.98265 2H4.97313C4.4361 2 4 2.45975 4 3.0259V7.86428C4 9.80767 5.44922 11.3937 7.27169 11.484V20.7051C7.27169 21.4198 7.82205 22 8.5 22C9.17795 22 9.72831 21.4198 9.72831 20.7051V11.484C11.5508 11.3917 13 9.80566 13 7.86428V3.0259C13 2.45975 12.5639 2 12.0269 2H12.0307Z" fill="#D77400"/>
</svg>
